<?xml version="1.0" encoding="utf-8"?>
<!-- Generator: Adobe Illustrator 25.2.0, SVG Export Plug-In . SVG Version: 6.00 Build 0)  -->
<svg version="1.1" id="Capa_1" xmlns="http://www.w3.org/2000/svg" xmlns:xlink="http://www.w3.org/1999/xlink" x="0px" y="0px"
	 viewBox="-3 -3 78 78" style="enable-background:new 0 0 78 78;" xml:space="preserve">
<g>
	<path fill="#D55236" d="M48.2,36l21.3-21.3c3.4-3.4,3.4-8.8,0-12.2c-3.4-3.4-8.8-3.4-12.2,0L36,23.8L14.7,2.5c-3.4-3.4-8.8-3.4-12.2,0
		c-3.4,3.4-3.4,8.8,0,12.2L23.8,36L2.5,57.3c-3.4,3.4-3.4,8.8,0,12.2C4.2,71.2,6.4,72,8.6,72c2.2,0,4.4-0.8,6.1-2.5L36,48.2
		l21.3,21.3c1.7,1.7,3.9,2.5,6.1,2.5c2.2,0,4.4-0.8,6.1-2.5c3.4-3.4,3.4-8.8,0-12.2L48.2,36z"/>
</g>
</svg>
